# xmcd
#
# Track frame offsets: 
#        150
#        12211
#        23151
#        35930
#        46670
#        59103
#        73273
#        81829
#        96691
#        105828
#        114568
#        125678
#        134876
#        144871
#        156654
#        165928
#        178946
#        193595
#        206356
#        216909
#        230638
#        245749
#        255679
#        267855
#        279447
#        295440
#        309030
#        320908
#        332983
#
# Disc length: 4637 seconds
#
# Revision: 0
# Processed by: cddbd v1.5.2PL0 Copyright (c) Steve Scherf et al.
# Submitted via: ExactAudioCopy v0.95b3
#
DISCID=ca121b1d
DTITLE=The Golden Gate Jubilee Quartet - Rock My Soul
DYEAR=2007
DGENRE=Gospel
TTITLE0=Golden Gate Gospel Train
TTITLE1=Gabriel Blows His Horn
TTITLE2=The Preacher and the Bear
TTITLE3=Go Where I Send Thee
TTITLE4=The Story of Job
TTITLE5=Stand in the Test in Judgment
TTITLE6=Travellin' Shoes
TTITLE7=Take Your Burdens to God
TTITLE8=To the Rock
TTITLE9=When They Ring Them Golden Bells
TTITLE10=My Lord Is Writing All the Time
TTITLE11=Rock My Soul
TTITLE12=Saints Go Marching Home
TTITLE13=Noah
TTITLE14=Ol' Man Mode
TTITLE15=I Looked Down the Road and I Wondered
TTITLE16=I'm A Pilgrim
TTITLE17=Every Time I Feel the Spirit
TTITLE18=My Walking Stick
TTITLE19=Pick A Bale of Cotton
TTITLE20=He Never Said a Mumblin' Word
TTITLE21=The Sun Didn't Shine on Calvary's Mountain
TTITLE22=Anyhow
TTITLE23=God's Gonna Cut 'em Down
TTITLE24=Wing Down, Chariot
TTITLE25=No Restricted Signs Up In Heaven
TTITLE26=Shadrach, Meshach, Abednego
TTITLE27=Joshua Fit de Battle of Jericho
TTITLE28=Atom and Evil
EXTD=
EXTT0=
EXTT1=
EXTT2=
EXTT3=
EXTT4=
EXTT5=
EXTT6=
EXTT7=
EXTT8=
EXTT9=
EXTT10=
EXTT11=
EXTT12=
EXTT13=
EXTT14=
EXTT15=
EXTT16=
EXTT17=
EXTT18=
EXTT19=
EXTT20=
EXTT21=
EXTT22=
EXTT23=
EXTT24=
EXTT25=
EXTT26=
EXTT27=
EXTT28=
PLAYORDER=
